<?xml version="1.0" encoding="UTF-8" standalone="no"?>
<!-- Created with Inkscape (http://www.inkscape.org/) -->

<svg
   width="64"
   height="64"
   viewBox="0 0 16.933333 16.933333"
   version="1.1"
   id="svg5"
   xml:space="preserve"
   inkscape:version="1.2.2 (b0a8486541, 2022-12-01)"
   sodipodi:docname="nekowm.svg"
   inkscape:export-filename="nekowm.png"
   inkscape:export-xdpi="96"
   inkscape:export-ydpi="96"
   xmlns:inkscape="http://www.inkscape.org/namespaces/inkscape"
   xmlns:sodipodi="http://sodipodi.sourceforge.net/DTD/sodipodi-0.dtd"
   xmlns="http://www.w3.org/2000/svg"
   xmlns:svg="http://www.w3.org/2000/svg"><sodipodi:namedview
     id="namedview7"
     pagecolor="#ffffff"
     bordercolor="#666666"
     borderopacity="1.0"
     inkscape:showpageshadow="2"
     inkscape:pageopacity="0.0"
     inkscape:pagecheckerboard="0"
     inkscape:deskcolor="#d1d1d1"
     inkscape:document-units="mm"
     showgrid="true"
     inkscape:zoom="11.313708"
     inkscape:cx="4.1542524"
     inkscape:cy="47.376155"
     inkscape:window-width="2540"
     inkscape:window-height="1410"
     inkscape:window-x="0"
     inkscape:window-y="0"
     inkscape:window-maximized="1"
     inkscape:current-layer="layer1"><inkscape:grid
       type="xygrid"
       id="grid113"
       originx="0"
       originy="0" /></sodipodi:namedview><defs
     id="defs2" /><g
     inkscape:label="Layer 1"
     inkscape:groupmode="layer"
     id="layer1"><circle
       style="fill:none;fill-opacity:1;stroke:#187db8;stroke-width:2.96618;stroke-linejoin:round;stroke-opacity:0.720495"
       id="path998"
       cx="8.3719826"
       cy="8.3973789"
       r="6.5800524" /><path
       style="fill:#000000;fill-opacity:1;stroke:none;stroke-width:0.160799;stroke-linecap:butt;stroke-linejoin:miter;stroke-dasharray:none;stroke-opacity:0.363353"
       d="M 5.8948615,5.5488416 C 6.2667199,5.5739562 6.4465655,5.4237595 6.638357,5.2844671 6.9015704,5.2759477 6.9447611,5.3075562 7.0306543,5.3313712 7.5232979,4.640164 7.285358,4.5921552 7.5039701,4.6917555 7.7225821,4.7913554 7.6770067,5.2146619 7.7530087,5.4761149 7.9300111,5.677196 8.023677,5.6300786 8.1410418,5.6381513 8.5742885,5.3561576 8.705274,5.2399207 8.9482677,5.0622597 9.191091,5.1482209 9.2299594,5.2966185 9.1401518,5.4844062 8.8620088,6.1127626 8.5277691,6.7393709 8.5687623,7.3776692 c 0.1848353,0.7870404 0.5259469,1.1052602 0.8739523,1.4027966 1.1375574,0.3496273 1.4160214,0.6992546 1.8155664,1.0488818 2.325472,2.0552444 2.052934,3.3003554 2.59844,4.8005564 0.08375,0.336982 1.45809,1.143156 2.017775,-0.70913 0.08302,-0.794654 0.0063,-1.295442 -0.870734,-2.393715 -0.436049,-0.657294 -0.491533,-1.231341 -0.26185,-1.743008 0.121962,-0.1869872 0.264611,-0.1492203 0.406124,-0.060644 0.141512,0.088577 -0.03868,0.341378 -0.03011,0.443482 -0.112695,0.7155 1.570213,2.049669 1.414918,3.724675 -0.04603,0.338415 -0.1442,2.365448 -3.014307,1.960658 -0.142928,-0.04296 -0.474784,0.0068 -1.016269,0.159132 H 12.075207 C 11.082835,15.686828 10.09046,15.911117 9.0980865,15.971217 8.7696237,15.936 8.749085,15.794418 8.7379651,15.649579 c 0.1063117,-0.263713 0.2317987,-0.3085 0.3683071,-0.332122 0.3613218,-0.04352 0.6607156,0.160661 1.1004258,-0.196418 0.100115,-0.119859 0.154111,-0.342432 -0.0408,-0.444863 C 9.9315549,14.542186 9.7064851,14.380384 9.5073265,14.140846 9.3525563,13.939614 9.2280924,13.705344 9.1316526,13.456386 8.8623059,13.134016 8.4207699,12.809146 7.7500285,13.415716 7.24861,13.944628 7.0083517,14.153753 6.7214697,15.33954 6.6644427,15.42471 6.576026,15.509889 6.3381162,15.595063 6.1165488,15.596363 5.7997736,15.650683 5.515696,15.449477 5.493946,15.418707 5.472592,15.387347 5.485401,15.304736 5.508636,15.200827 5.579397,15.191972 5.6419501,15.1667 5.8798118,15.14157 6.0600418,15.038209 6.2156894,14.901494 6.4640285,14.135576 6.7606071,13.394554 6.8364904,12.539622 6.8231971,12.085548 6.720281,11.914576 6.6152033,11.75043 6.296997,11.726741 5.976291,11.681615 5.7383846,12.346208 l 0.085834,0.283944 c -0.02269,0.08533 0.024131,0.170665 -0.1561854,0.255998 -0.1076483,0.03856 -0.2152951,0.0521 -0.3229426,-0.08402 L 5.1935578,12.39236 c -0.074237,-0.308168 0.010419,-0.556752 0.219034,-0.758851 0.6558793,-0.608098 0.6623251,-0.938492 0.7751239,-1.314363 L 6.1024997,9.3998894 C 6.0537648,8.823599 6.1562119,8.2771467 6.3655668,7.751795 6.3921164,7.4784317 6.4487282,7.2050682 6.3328513,6.9317046 L 5.9559315,6.5977973 C 5.8517881,6.4432521 5.729577,6.3609771 5.6661502,6.0435643 5.6796501,5.9275439 5.6331327,5.8582881 5.8948615,5.5488416 Z"
       id="path477"
       sodipodi:nodetypes="ccczccccccccccczcccccccccccccccccccccccccccccccccc" /><circle
       style="fill:#ffffff;fill-opacity:1;stroke:none;stroke-width:4.21685;stroke-linejoin:round;stroke-opacity:0.720495"
       id="path3544"
       cx="3.6595237"
       cy="3.7993932"
       r="0.97714037" /><circle
       style="fill:#ffffff;fill-opacity:1;stroke:none;stroke-width:4.21685;stroke-linejoin:round;stroke-opacity:0.720495"
       id="path3544-3"
       cx="2.1418326"
       cy="5.957859"
       r="0.97714037" /><circle
       style="fill:#ffffff;fill-opacity:1;stroke:none;stroke-width:4.21685;stroke-linejoin:round;stroke-opacity:0.720495"
       id="path3544-6"
       cx="5.8244715"
       cy="2.3543396"
       r="0.97714037" /><text
       xml:space="preserve"
       style="font-size:4.23333px;line-height:1.25;font-family:sans-serif;letter-spacing:0px;word-spacing:0px;stroke-width:0.265;stroke-dasharray:none"
       x="2.7046053"
       y="1.2545241"
       id="text4361"><tspan
         sodipodi:role="line"
         id="tspan4359"
         style="stroke-width:0.265;stroke-dasharray:none"
         x="2.7046053"
         y="1.2545241" /></text></g></svg>
